<svg width="37" height="37" viewBox="0 0 37 37" fill="none" xmlns="http://www.w3.org/2000/svg">
<path d="M14.6458 15.2872H20.0416M20.0416 15.2872H29.677C31.167 15.2872 32.3749 16.4951 32.3749 17.9851C32.3749 19.4751 31.167 20.683 29.677 20.683H21.5833L20.847 25.4267C20.4009 28.4 20.178 29.8867 19.5507 30.9338C18.5144 32.6636 16.9583 33.9167 14.6864 33.9167C13.1041 33.9167 12.0425 33.5255 9.19021 32.5748C7.38039 31.9715 6.47547 31.6698 5.75914 31.178C4.57979 30.3682 3.71873 29.1734 3.32338 27.7986C3.08325 26.9634 3.08325 26.0096 3.08325 24.1018V21.9359C3.08325 19.1848 3.08325 17.8093 3.59963 16.6281C3.83292 16.0945 4.14063 15.5966 4.51359 15.1493C5.33911 14.1592 6.56942 13.5441 9.03005 12.3138C11.0255 11.3161 12.0232 10.8172 13.0576 10.7929C13.5241 10.782 13.9896 10.8417 14.4382 10.9701C15.4329 11.2546 16.2725 11.9892 17.9514 13.4583L20.0416 15.2872Z" stroke="white" stroke-width="1.5" stroke-linecap="round" stroke-linejoin="round"/>
<path d="M33.9167 6.9375H24.6667M33.9167 6.9375C33.9167 5.85798 30.8422 3.84111 30.0626 3.08334M33.9167 6.9375C33.9167 8.01702 30.8422 10.0339 30.0626 10.7917" stroke="white" stroke-width="1.5" stroke-linecap="round" stroke-linejoin="round"/>
</svg>
