<svg width="37" height="37" viewBox="0 0 37 37" fill="none" xmlns="http://www.w3.org/2000/svg">
<path d="M22.3542 15.2872H16.9584M16.9584 15.2872H7.323C5.83298 15.2872 4.62508 16.4951 4.62508 17.9851C4.62508 19.4751 5.83298 20.683 7.323 20.683H15.4167L16.153 25.4267C16.5991 28.4 16.822 29.8867 17.4493 30.9338C18.4856 32.6636 20.0417 33.9167 22.3136 33.9167C23.8959 33.9167 24.9575 33.5255 27.8098 32.5748C29.6196 31.9715 30.5245 31.6698 31.2409 31.178C32.4202 30.3682 33.2813 29.1734 33.6766 27.7986C33.9167 26.9634 33.9167 26.0096 33.9167 24.1018V21.9359C33.9167 19.1848 33.9167 17.8093 33.4004 16.6281C33.1671 16.0945 32.8594 15.5966 32.4864 15.1493C31.6609 14.1592 30.4306 13.5441 27.97 12.3138C25.9745 11.3161 24.9768 10.8172 23.9424 10.7929C23.4759 10.782 23.0104 10.8417 22.5618 10.9701C21.5671 11.2546 20.7275 11.9892 19.0486 13.4583L16.9584 15.2872Z" stroke="white" stroke-width="1.5" stroke-linecap="round" stroke-linejoin="round"/>
<path d="M3.08325 6.9375H12.3333M3.08325 6.9375C3.08325 5.85798 6.1578 3.84111 6.93742 3.08334M3.08325 6.9375C3.08325 8.01702 6.1578 10.0339 6.93742 10.7917" stroke="white" stroke-width="1.5" stroke-linecap="round" stroke-linejoin="round"/>
</svg>
