<svg width="40" height="40" viewBox="0 0 40 40" fill="none" xmlns="http://www.w3.org/2000/svg">
<path d="M6.66669 8.33337C6.66669 7.09302 6.66669 6.47286 6.81522 5.96702C7.16677 4.76976 8.10307 3.83346 9.30034 3.48191C9.80617 3.33337 10.4263 3.33337 11.6667 3.33337H23.3334C24.5737 3.33337 25.1939 3.33337 25.6997 3.48191C26.897 3.83346 27.8334 4.76976 28.1849 5.96702C28.3334 6.47286 28.3334 7.09302 28.3334 8.33337C28.3334 9.57372 28.3334 10.1939 28.1849 10.6997C27.8334 11.897 26.897 12.8333 25.6997 13.1848C25.1939 13.3334 24.5737 13.3334 23.3334 13.3334H11.6667C10.4263 13.3334 9.80617 13.3334 9.30034 13.1848C8.10307 12.8333 7.16677 11.897 6.81522 10.6997C6.66669 10.1939 6.66669 9.57372 6.66669 8.33337Z" stroke="white" stroke-width="2" stroke-linecap="round"/>
<path d="M20 29.1666C20 28.3901 20 28.0018 20.1268 27.6955C20.296 27.2871 20.6205 26.9626 21.0288 26.7935C21.3352 26.6666 21.7235 26.6666 22.5 26.6666C23.2765 26.6666 23.6648 26.6666 23.9712 26.7935C24.3795 26.9626 24.704 27.2871 24.8732 27.6955C25 28.0018 25 28.3901 25 29.1666V34.1666C25 34.9431 25 35.3315 24.8732 35.6378C24.704 36.0461 24.3795 36.3706 23.9712 36.5398C23.6648 36.6666 23.2765 36.6666 22.5 36.6666C21.7235 36.6666 21.3352 36.6666 21.0288 36.5398C20.6205 36.3706 20.296 36.0461 20.1268 35.6378C20 35.3315 20 34.9431 20 34.1666V29.1666Z" stroke="white" stroke-width="2" stroke-linecap="round"/>
<path d="M28.7483 8.33337C30.1728 8.33337 30.885 8.33337 31.4468 8.58711C33.3297 9.43737 33.3342 11.438 33.3342 13.3404C33.3342 14.9345 33.3342 15.7315 33.1168 16.4037C32.4188 18.563 29.5645 19.6134 26.806 20.3955C24.8343 20.9545 23.8485 21.234 23.1742 22.126C22.5 23.0179 22.5 24.0649 22.5 26.1587V26.6667" stroke="white" stroke-width="2" stroke-linecap="round" stroke-linejoin="round"/>
</svg>
