<svg width="119" height="38" viewBox="0 0 119 38" fill="none" xmlns="http://www.w3.org/2000/svg">
<g clip-path="url(#clip0_17_147)">
<path d="M118.165 25.9469C117.986 25.9469 117.808 26.0656 117.688 26.3625C116.496 29.8063 114.827 31.8844 113.455 31.8844C112.68 31.8844 112.382 30.9937 112.382 29.6875C112.382 26.3031 114.409 19.1187 115.423 15.7937C115.542 15.3781 115.602 15.0219 115.602 14.725C115.602 13.775 115.065 13.3 113.754 13.3C112.382 13.3 110.832 13.8344 109.401 16.3875C108.924 14.1313 107.374 13.1813 105.228 13.1813C102.784 13.1813 100.399 14.7844 98.4314 17.3375C96.4639 19.8906 94.1388 20.7219 92.4098 20.3062C93.6618 17.2781 94.1388 14.9625 94.1388 13.3C94.1388 10.6281 92.8272 9.025 90.6809 9.025C87.4614 9.025 85.6132 12.1125 85.6132 15.3187C85.6132 17.8125 86.746 20.3656 89.25 21.6125C87.1633 26.3031 84.1228 30.5781 82.9304 30.5781C81.4399 30.5781 80.9629 23.275 81.0822 18.05C81.1418 15.0813 81.3803 14.9031 81.3803 14.0125C81.3803 13.4781 81.0226 13.1219 79.6513 13.1219C76.4915 13.1219 75.478 15.7937 75.3587 18.8813C75.2991 20.0688 75.1202 21.1969 74.8222 22.325C73.5105 27.0156 70.768 30.6375 68.9795 30.6375C68.1448 30.6375 67.9063 29.8063 67.9063 28.7375C67.9063 25.3531 69.8141 21.0781 69.8141 17.4562C69.8141 14.7844 68.6217 13.1219 66.4158 13.1219C63.7926 13.1219 60.3943 16.2094 57.1152 21.9688C58.1884 17.575 58.6057 13.3 55.4459 13.3C54.7305 13.3 54.0746 13.4781 53.4785 13.8344C53.0611 14.0125 52.8226 14.4281 52.8226 14.9031C53.1207 19.5938 49.007 31.6469 45.1318 31.6469C44.4163 31.6469 44.0586 30.875 44.0586 29.6281C44.0586 26.2438 46.0857 19.0594 47.0992 15.7344C47.2184 15.3188 47.2781 14.9625 47.2781 14.6062C47.2781 13.7156 46.7415 13.2406 45.4299 13.2406C44.0586 13.2406 42.5085 13.775 41.0777 16.3281C40.5411 14.0719 39.0506 13.1219 36.9043 13.1219C33.3868 13.1219 29.5115 16.8031 27.7826 21.6125C25.4574 28.025 20.8667 34.2594 14.6067 34.2594C8.94289 34.2594 5.96192 29.5688 5.96192 22.1469C5.96192 11.4 13.8913 2.67188 19.734 2.67188C22.5361 2.67188 23.8477 4.45313 23.8477 7.18438C23.8477 10.5094 21.9995 11.9937 21.9995 13.3C21.9995 13.6562 22.2976 14.0719 22.9534 14.0719C25.517 14.0719 28.498 11.1031 28.498 7.00625C28.498 2.90937 25.2786 0 19.4359 0C9.71794 0 0 9.67812 0 22.1469C0 32.0625 4.88878 38 13.3547 38C19.1378 38 24.2054 33.5469 26.8883 28.3219C27.1864 32.6562 29.1538 34.9125 32.1944 34.9125C34.8773 34.9125 37.0236 33.3094 38.6929 30.5188C39.3487 33.4281 41.018 34.8531 43.2239 34.8531C45.728 34.8531 47.8742 33.25 49.8417 30.3406C49.8417 32.6562 50.3186 34.8531 52.3457 34.8531C53.2996 34.8531 54.4324 34.6156 54.6112 33.7844C56.7575 25.0563 62.004 17.8719 63.6137 17.8719C64.0907 17.8719 64.2099 18.3469 64.2099 18.8813C64.2099 21.2563 62.5406 26.125 62.5406 29.2125C62.5406 32.5969 63.9714 34.7938 66.9524 34.7938C70.2315 34.7938 73.5701 30.8156 75.7761 24.9375C76.4915 30.4 77.982 34.7938 80.3071 34.7938C83.1688 34.7938 88.3557 28.7375 91.4559 22.325C92.6483 22.5031 94.4965 22.4438 96.2851 21.1969C95.51 23.0969 95.0927 25.175 95.0927 27.1938C95.0927 33.1312 97.9544 34.7938 100.399 34.7938C103.082 34.7938 105.228 33.1906 106.897 30.4C107.434 32.8937 108.865 34.7344 111.428 34.7344C115.423 34.7344 118.94 30.6375 118.94 27.2531C119 26.5406 118.583 25.9469 118.165 25.9469ZM34.6984 31.5875C33.0887 31.5875 32.4329 29.9844 32.4329 27.55C32.4329 23.3344 35.3542 16.2687 38.3948 16.2687C39.7064 16.2687 40.243 17.8125 40.243 19.7719C40.243 24.0469 37.5005 31.5875 34.6984 31.5875ZM90.3232 19C89.3692 17.8719 89.0115 16.2688 89.0115 14.9031C89.0115 13.1813 89.6673 11.7562 90.3828 11.7562C91.0982 11.7562 91.3963 12.4688 91.3963 13.5375C91.3367 15.2 90.7405 17.7531 90.3232 19ZM102.903 31.5875C101.293 31.5875 100.637 29.6875 100.637 27.55C100.637 23.4531 103.559 16.2687 106.599 16.2687C107.911 16.2687 108.388 17.8125 108.388 19.7719C108.447 24.0469 105.765 31.5875 102.903 31.5875Z" fill="black"/>
</g>
<defs>
<clipPath id="clip0_17_147">
<rect width="119" height="38" fill="white"/>
</clipPath>
</defs>
</svg>
