<svg width="95" height="95" viewBox="0 0 95 95" fill="none" xmlns="http://www.w3.org/2000/svg">
<g clip-path="url(#clip0_17_132)">
<mask id="mask0_17_132" style="mask-type:luminance" maskUnits="userSpaceOnUse" x="0" y="0" width="95" height="95">
<path d="M0 0H95V95H0V0Z" fill="white"/>
</mask>
<g mask="url(#mask0_17_132)">
<path d="M75.8357 32.3628C78.3358 36.9247 79.7586 42.1599 79.7586 47.7287C79.7586 59.5453 73.3547 69.8618 63.8325 75.4137L73.6152 47.1286C75.4425 42.5591 76.0509 38.9054 76.0509 35.6565C76.0509 34.4773 75.9733 33.383 75.8357 32.3628ZM52.1437 32.7115C54.072 32.6101 55.8095 32.4073 55.8095 32.4073C57.5353 32.203 57.3318 29.6666 55.6052 29.7677C55.6052 29.7677 50.4171 30.1748 47.068 30.1748C43.9209 30.1748 38.6326 29.7677 38.6326 29.7677C36.9053 29.6666 36.7028 32.3052 38.4294 32.4073C38.4294 32.4073 40.0633 32.6101 41.7891 32.7115L46.7788 46.3844L39.7685 67.4062L28.1053 32.7115C30.0351 32.6101 31.7707 32.4073 31.7707 32.4073C33.4954 32.203 33.2919 29.6666 31.566 29.7677C31.566 29.7677 26.3791 30.1748 23.0296 30.1748C22.4287 30.1748 21.7203 30.1601 20.9683 30.136C26.6954 21.4412 36.5392 15.6994 47.7296 15.6994C56.0677 15.6994 63.6602 18.8875 69.3583 24.1088C69.2203 24.1005 69.0858 24.0831 68.9436 24.0831C65.7973 24.0831 63.5648 26.8238 63.5648 29.7677C63.5648 32.4073 65.0878 34.6406 66.7111 37.2798C67.9292 39.4132 69.3519 42.1535 69.3519 46.1133C69.3519 48.8544 68.2975 52.0358 66.9147 56.4676L63.719 67.1419L52.1437 32.7115ZM47.7296 79.7607C44.5856 79.7607 41.5512 79.2996 38.6809 78.4556L48.2921 50.5305L58.1366 77.5033C58.2015 77.6616 58.281 77.8075 58.3658 77.9447C55.0367 79.1168 51.4595 79.7607 47.7296 79.7607ZM15.7003 47.7287C15.7003 43.085 16.6963 38.6769 18.4737 34.6937L33.7525 76.5548C23.0669 71.3637 15.7003 60.4067 15.7003 47.7287ZM47.7296 12.1048C28.0861 12.1048 12.105 28.0856 12.105 47.7287C12.105 67.3726 28.0861 83.3552 47.7296 83.3552C67.3727 83.3552 83.3546 67.3726 83.3546 47.7287C83.3546 28.0856 67.3727 12.1048 47.7296 12.1048Z" fill="#3F3C3C"/>
</g>
</g>
<defs>
<clipPath id="clip0_17_132">
<rect width="95" height="95" fill="white"/>
</clipPath>
</defs>
</svg>
